<?xml version="1.0" encoding="UTF-8" standalone="no"?><!DOCTYPE svg PUBLIC "-//W3C//DTD SVG 1.1//EN" "http://www.w3.org/Graphics/SVG/1.1/DTD/svg11.dtd"><svg width="100%" height="100%" viewBox="0 0 512 512" version="1.1" xmlns="http://www.w3.org/2000/svg" xmlns:xlink="http://www.w3.org/1999/xlink" xml:space="preserve" xmlns:serif="http://www.serif.com/" style="fill-rule:evenodd;clip-rule:evenodd;stroke-linejoin:round;stroke-miterlimit:2;"><g id="ArtBoard1"><g><g><g><path d="M255.166,97.3l39.165,40.337l-68.895,-40.59c4.686,-7.298 16.022,-2.63 29.73,0.253Z" style="fill:#4a8e4c;"/><path d="M360.881,324.682l-0.555,49.286l-50.911,-44.105l51.466,-5.181Z" style="fill:#128e5a;"/><path d="M215.598,176.983l98.791,80.503l-147.312,-19.094l48.521,-61.409Z" style="fill:#91ff95;"/><path d="M294.331,137.637l87.666,120.022l-67.608,-0.173l-20.058,-119.849Z" style="fill:#4cbc4f;"/><path d="M225.436,97.047l-9.687,80.572l-34.932,-42.992l44.619,-37.58Z" style="fill:#4cbc4f;"/><g><g><path d="M185.766,70.159l106.669,-62.262l82.081,36.888l-188.75,25.374Z" style="fill:#003c02;"/><g><g><path d="M209.555,109.391l-11.086,-14.809l-39.454,-19.94l-51.524,2.563l-15.342,10.446l-11.916,-14.914l7.936,-15.265l91.491,11.219l45.005,27.962l-15.11,12.738Z" style="fill:#3c2e00;"/></g></g><g><g><path d="M309.491,456.362l25.165,50.028l1.135,-46.816" style="fill:#144016;"/><path d="M300.14,385.21l9.351,71.151l26.3,3.213" style="fill:#008104;"/><path d="M442.389,435.587l-106.598,23.987l70.605,-46.122" style="fill:#b1cd66;"/><path d="M407.154,360.05l-0.758,53.402l43.589,-82.602" style="fill:#9bd500;"/><path d="M300.14,385.21l60.186,-11.242l-50.91,-44.105" style="fill:#517f1a;"/><path d="M407.154,360.05l-0.758,53.402l-46.07,-39.484l46.828,-13.918Z" style="fill:#1c553d;"/><path d="M300.141,385.21l106.255,28.242l-70.605,46.122l-35.65,-74.364Z" style="fill:#2ceb46;"/><path d="M360.326,373.968l46.07,39.484l-106.255,-28.242l60.185,-11.242Z" style="fill:#99ffa7;"/><path d="M449.985,330.85l-7.596,104.737l-35.993,-22.135l43.589,-82.602Z" style="fill:#007910;"/><path d="M205.731,361.511l94.41,23.699l-55.496,61.071" style="fill:#8cd533;"/><path d="M187.114,468.338l57.531,-22.057l13.008,54.929" style="fill:#57d681;"/><path d="M244.649,446.297l64.842,10.065l-51.838,44.848l-13.004,-54.913Z" style="fill:#009815;"/><path d="M309.491,456.362l25.165,50.028l-77.003,-5.18l51.838,-44.848Z" style="fill:#61ff77;"/><path d="M149.237,442.115l37.876,26.218l-5.111,17.621" style="fill:#007d2a;"/><path d="M154.367,412.116l32.746,56.217l18.618,-106.822" style="fill:#8dffb3;"/><path d="M187.113,468.333l70.54,32.877l-75.645,-15.257l5.105,-17.62Z" style="fill:#0aff2c;"/><path d="M127.215,365.979c20.222,33.981 40.152,68.119 59.898,102.354l-37.876,-26.218l-22.022,-76.136Z" style="fill:#00520b;"/><path d="M155.442,306.361l-1.074,105.755l-27.153,-46.137" style="fill:#27994d;"/><path d="M155.442,306.361l50.289,55.15l12.142,-81.116" style="fill:#0c692b;"/><path d="M381.997,257.659l67.988,73.191l-42.831,29.2l-25.157,-102.391Z" style="fill:#4a8e4c;"/><path d="M217.93,280.383l-62.488,25.978l11.812,-68.125" style="fill:#73c68e;"/><path d="M360.645,324.263l-51.858,5.443" style="fill:none;"/><path d="M217.873,280.395l91.543,49.468l4.968,-72.376" style="fill:#35bd62;"/><path d="M155.442,306.361l50.289,55.15l-51.363,50.605l1.074,-105.755Z" style="fill:#07e185;"/><path d="M360.886,324.704l46.268,35.346l-46.828,13.918l0.56,-49.264Z" style="fill:#07e185;"/><path d="M314.388,257.486l46.493,67.197l-51.465,5.18l4.972,-72.377Z" style="fill:#2ad62f;"/><path d="M167.254,238.236l50.641,42.155l96.489,-22.904" style="fill:#144725;"/><path d="M314.384,257.487l46.497,67.196l21.116,-67.024" style="fill:#aeffc9;"/><path d="M214.467,176.577l99.922,80.909l-20.058,-119.849" style="fill:#36d068;"/><path d="M225.436,97.047l-9.957,79.316l78.849,-38.738" style="fill:#00591d;"/><path d="M180.667,134.658l34.884,42.125l-48.297,61.453" style="fill:#007d29;"/><path d="M360.881,324.683l46.273,35.367l-25.157,-102.391" style="fill:#6eff9e;"/><path d="M309.416,329.863l-9.276,55.347l-94.409,-23.699l103.685,-31.648Z" style="fill:#4a8e4c;"/></g></g><path d="M335.791,459.574c35.426,-9.025 70.836,-16.419 106.598,-23.987l-107.733,70.803l1.135,-46.816Z" style="fill:#00700f;"/></g></g><path d="M381.997,257.659l39.94,18.902l28.054,54.313l-67.994,-73.215Z" style="fill:#b5ffbf;"/><path d="M168.399,238.112l-12.231,67.257l-28.953,60.61l41.184,-127.867Z" style="fill:#564b2a;"/><path d="M217.873,280.395l91.543,49.466l-103.685,31.65l12.142,-81.116Z" style="fill:#91ff95;"/><path d="M300.141,385.21l9.35,71.152l-64.846,-10.081l55.496,-61.071Z" style="fill:#0acc25;"/><path d="M206.033,362.787l38.612,83.494l-57.532,22.052l18.92,-105.546Z" style="fill:#076313;"/></g></g></g></g></svg>