<?xml version="1.0" encoding="UTF-8" standalone="no"?><!DOCTYPE svg PUBLIC "-//W3C//DTD SVG 1.1//EN" "http://www.w3.org/Graphics/SVG/1.1/DTD/svg11.dtd"><svg width="100%" height="100%" viewBox="0 0 123 123" version="1.1" xmlns="http://www.w3.org/2000/svg" xmlns:xlink="http://www.w3.org/1999/xlink" xml:space="preserve" xmlns:serif="http://www.serif.com/" style="fill-rule:evenodd;clip-rule:evenodd;stroke-linejoin:round;stroke-miterlimit:2;"><g id="ArtBoard1"><g><g><g><path d="M61.24,23.352l9.399,9.681l-16.534,-9.742c1.124,-1.751 3.845,-0.631 7.135,0.061Z" style="fill:#b6b6b6;"/><path d="M86.611,77.924l-0.133,11.828l-12.218,-10.585l12.351,-1.243Z" style="fill:#b6b6b6;"/><path d="M51.744,42.476l23.709,19.321l-35.355,-4.583l11.646,-14.738Z" style="fill:#b6b6b6;"/><path d="M70.639,33.033l21.04,28.805l-16.226,-0.041l-4.814,-28.764Z" style="fill:#b6b6b6;"/><path d="M54.105,23.291l-2.325,19.338l-8.384,-10.319l10.709,-9.019Z" style="fill:#b6b6b6;"/><g><g><path d="M44.584,16.838l25.6,-14.943l19.7,8.854l-45.3,6.089Z" style="fill:#b6b6b6;"/><g><g><path d="M50.293,26.254l-2.66,-3.554l-9.469,-4.786l-12.366,0.615l-3.682,2.507l-2.86,-3.579l1.905,-3.664l21.957,2.693l10.802,6.711l-3.627,3.057Z" style="fill:#b6b6b6;"/></g></g><g><g><path d="M74.278,109.527l6.039,12.007l0.273,-11.236" style="fill:#b6b6b6;"/><path d="M72.034,92.45l2.244,17.077l6.312,0.771" style="fill:#b6b6b6;"/><path d="M106.173,104.541l-25.583,5.757l16.945,-11.069" style="fill:#b6b6b6;"/><path d="M97.717,86.412l-0.182,12.817l10.461,-19.825" style="fill:#b6b6b6;"/><path d="M72.034,92.45l14.444,-2.698l-12.218,-10.585" style="fill:#b6b6b6;"/><path d="M97.717,86.412l-0.182,12.817l-11.057,-9.477l11.239,-3.34Z" style="fill:#b6b6b6;"/><path d="M72.034,92.45l25.501,6.779l-16.945,11.069l-8.556,-17.848Z" style="fill:#b6b6b6;"/><path d="M86.478,89.752l11.057,9.477l-25.501,-6.779l14.444,-2.698Z" style="fill:#b6b6b6;"/><path d="M107.996,79.404l-1.823,25.137l-8.638,-5.312l10.461,-19.825Z" style="fill:#b6b6b6;"/><path d="M49.375,86.763l22.659,5.687l-13.319,14.657" style="fill:#b6b6b6;"/><path d="M44.907,112.401l13.808,-5.294l3.122,13.183" style="fill:#b6b6b6;"/><path d="M58.716,107.111l15.562,2.416l-12.441,10.763l-3.121,-13.179Z" style="fill:#b6b6b6;"/><path d="M74.278,109.527l6.039,12.007l-18.48,-1.244l12.441,-10.763Z" style="fill:#b6b6b6;"/><path d="M35.817,106.108l9.09,6.292l-1.226,4.229" style="fill:#b6b6b6;"/><path d="M37.048,98.908l7.859,13.492l4.468,-25.637" style="fill:#b6b6b6;"/><path d="M44.907,112.4l16.93,7.89l-18.155,-3.661l1.225,-4.229Z" style="fill:#b6b6b6;"/><path d="M30.532,87.835c4.853,8.155 9.636,16.349 14.375,24.565l-9.09,-6.292l-5.285,-18.273Z" style="fill:#b6b6b6;"/><path d="M37.306,73.527l-0.258,25.381l-6.516,-11.073" style="fill:#b6b6b6;"/><path d="M37.306,73.527l12.069,13.236l2.915,-19.468" style="fill:#b6b6b6;"/><path d="M91.679,61.838l16.317,17.566l-10.279,7.008l-6.038,-24.574Z" style="fill:#b6b6b6;"/><path d="M52.303,67.292l-14.997,6.235l2.835,-16.35" style="fill:#b6b6b6;"/><path d="M86.555,77.823l-12.446,1.306" style="fill:none;"/><path d="M52.29,67.295l21.97,11.872l1.192,-17.37" style="fill:#b6b6b6;"/><path d="M37.306,73.527l12.069,13.236l-12.327,12.145l0.258,-25.381Z" style="fill:#b6b6b6;"/><path d="M86.613,77.929l11.104,8.483l-11.239,3.34l0.135,-11.823Z" style="fill:#b6b6b6;"/><path d="M75.453,61.797l11.158,16.127l-12.351,1.243l1.193,-17.37Z" style="fill:#b6b6b6;"/><path d="M40.141,57.177l12.154,10.117l23.157,-5.497" style="fill:#b6b6b6;"/><path d="M75.452,61.797l11.159,16.127l5.068,-16.086" style="fill:#b6b6b6;"/><path d="M51.472,42.378l23.981,19.419l-4.814,-28.764" style="fill:#b6b6b6;"/><path d="M54.105,23.291l-2.39,19.036l18.924,-9.297" style="fill:#b6b6b6;"/><path d="M43.36,32.318l8.372,10.11l-11.591,14.749" style="fill:#b6b6b6;"/><path d="M86.611,77.924l11.106,8.488l-6.038,-24.574" style="fill:#b6b6b6;"/><path d="M74.26,79.167l-2.226,13.283l-22.659,-5.687l24.885,-7.596Z" style="fill:#b6b6b6;"/></g></g><path d="M80.59,110.298c8.502,-2.166 17,-3.941 25.583,-5.757l-25.856,16.993l0.273,-11.236Z" style="fill:#b6b6b6;"/></g></g><path d="M91.679,61.838l9.586,4.537l6.733,13.035l-16.319,-17.572Z" style="fill:#b6b6b6;"/><path d="M40.416,57.147l-2.936,16.142l-6.948,14.546l9.884,-30.688Z" style="fill:#b6b6b6;"/><path d="M52.29,67.295l21.97,11.872l-24.885,7.596l2.915,-19.468Z" style="fill:#b6b6b6;"/><path d="M72.034,92.45l2.244,17.077l-15.563,-2.42l13.319,-14.657Z" style="fill:#b6b6b6;"/><path d="M49.448,87.069l9.267,20.038l-13.808,5.293l4.541,-25.331Z" style="fill:#b6b6b6;"/></g></g></g></g></svg>